<!-- Generated by IcoMoon.io -->
<svg version="1.1" xmlns="http://www.w3.org/2000/svg" width="32" height="32" viewBox="0 0 32 32">
<title>chome</title>
<path fill="#fff" d="M31.451 6.909c-0.406-3.517-2.843-5.954-6.363-6.362-2.729-0.35-5.887-0.549-9.091-0.549s-6.361 0.2-9.46 0.587l0.37-0.038c-3.517 0.406-5.954 2.843-6.362 6.362-0.35 2.729-0.549 5.887-0.549 9.091s0.2 6.361 0.587 9.46l-0.038-0.37c0.406 3.517 2.843 5.954 6.362 6.363 2.714 0.35 5.854 0.549 9.040 0.549 0.018 0 0.036 0 0.053-0h-0.003c0.015 0 0.033 0 0.051 0 3.186 0 6.324-0.2 9.405-0.587l-0.367 0.038c3.518-0.406 5.954-2.842 6.363-6.363 0.35-2.731 0.55-5.89 0.55-9.095 0-3.202-0.199-6.358-0.586-9.456l0.038 0.37zM28.68 24.755v0.011c-0.257 2.232-1.682 3.657-3.913 3.913h-0.011c-2.628 0.337-5.669 0.529-8.755 0.529s-6.126-0.192-9.111-0.565l0.356 0.036h-0.011c-2.232-0.257-3.657-1.682-3.913-3.913v-0.011c-0.337-2.628-0.529-5.669-0.529-8.755s0.192-6.126 0.565-9.111l-0.036 0.356v-0.011c0.257-2.232 1.682-3.657 3.913-3.913h0.011c2.628-0.337 5.669-0.529 8.755-0.529s6.126 0.192 9.111 0.565l-0.356-0.036h0.011c2.232 0.257 3.657 1.682 3.913 3.913v0.011c0.337 2.628 0.529 5.669 0.529 8.755s-0.192 6.126-0.565 9.111l0.036-0.356zM22.553 13.816l-5.111-3.586c-0.277-0.196-0.623-0.314-0.996-0.314s-0.718 0.118-1.001 0.318l0.005-0.004-5.111 3.585c-0.079 0.062-0.13 0.157-0.13 0.265 0 0.179 0.141 0.326 0.318 0.334l0.001 0h0.265l0.484 6.921c0.030 0.42 0.378 0.75 0.804 0.75h2.141c0.445 0 0.806-0.361 0.806-0.806v0-1.254c-0-0.005-0-0.011-0-0.016 0-0.765 0.594-1.39 1.346-1.44l0.004-0c0.020-0.001 0.043-0.002 0.067-0.002 0.781 0 1.414 0.633 1.414 1.414v1.298c0 0 0 0 0 0 0 0.445 0.36 0.805 0.805 0.806h2.142c0.425-0 0.774-0.33 0.804-0.748l0-0.003 0.484-6.921h0.265c0.18-0.006 0.324-0.154 0.324-0.335 0-0.107-0.050-0.203-0.129-0.264l-0.001-0.001z"></path>
</svg>
